# xmcd
#
# Track frame offsets: 
#        150
#        21672
#        39090
#        61205
#        82097
#        96142
#        113242
#        128282
#        145907
#
# Disc length: 2220 seconds
#
# Revision: 3
# Processed by: cddbd v1.5.2PL0 Copyright (c) Steve Scherf et al.
# Submitted via: ExactAudioCopy v1.0b3
#
DISCID=7008aa09
DTITLE=Clarence "Gatemouth" Brown - Standing My Ground
DYEAR=1989
DGENRE=Blues
TTITLE0=Got My Mojo Working
TTITLE1=Born In Louisiana
TTITLE2=Cool Jazz
TTITLE3=I Hate These Doggone Blues
TTITLE4=She Walks Right In
TTITLE5=Leftover Blues
TTITLE6=Louisiana Zydeco
TTITLE7=What Am I Living For
TTITLE8=Never Unpack Your Suitcase
EXTD=LABEL =Alligator Records and Artist Mgmt., Inc.\nID =ALCD4779\nUP
EXTD=C =014551-4779-21\nCOPYRIGHT =1989\n**********\n1989 Alligator 
EXTD=Records ALCD 4779\n\nClarence "Gatemouth" Brown: vocals, guitar, 
EXTD=fiddle, piano, drums\nTommy Moran: guitar\nRob Fleming or Larry M
EXTD=arshall: organ\nHarold Floyd: bass\nLloyd Herrman or Kenny Brown:
EXTD=drums\nDennis Taylor: sax\nBill Samuel: sax\nBobby Campo: trumpe
EXTD=t\nErnie Gauteau: trombone\nTerrance Simien: accordian\nEarl Sall
EXTD=y: rubboard\nDavid Craig, Frank Smith, Mike Pace, BobbyBron: back
EXTD=ing vocals\n\nEntry: Mike Lempriere  mikel@speakeasy.org  09-Jan-
EXTD=1997
EXTT0=
EXTT1=
EXTT2=
EXTT3=
EXTT4=
EXTT5=
EXTT6=
EXTT7=
EXTT8=
PLAYORDER=
